<?xml version="1.0" encoding="UTF-8" standalone="no"?>
<svg
   viewBox="0 0 141.42264 23.65999"
   version="1.1"
   id="svg11"
   sodipodi:docname="SwiftReporter_Landscape_logo.svg"
   width="141.42264"
   height="23.65999"
   inkscape:version="1.3 (0e150ed6c4, 2023-07-21)"
   inkscape:export-filename="SwiftReporter_Landscape_logo_4000.png"
   inkscape:export-xdpi="2715.2654"
   inkscape:export-ydpi="2715.2654"
   xmlns:inkscape="http://www.inkscape.org/namespaces/inkscape"
   xmlns:sodipodi="http://sodipodi.sourceforge.net/DTD/sodipodi-0.dtd"
   xmlns="http://www.w3.org/2000/svg"
   xmlns:svg="http://www.w3.org/2000/svg">
  <sodipodi:namedview
     id="namedview11"
     pagecolor="#ffffff"
     bordercolor="#000000"
     borderopacity="0.25"
     inkscape:showpageshadow="2"
     inkscape:pageopacity="0.0"
     inkscape:pagecheckerboard="0"
     inkscape:deskcolor="#d1d1d1"
     inkscape:zoom="11.313709"
     inkscape:cx="57.098872"
     inkscape:cy="-12.197592"
     inkscape:window-width="3840"
     inkscape:window-height="2054"
     inkscape:window-x="-11"
     inkscape:window-y="-11"
     inkscape:window-maximized="1"
     inkscape:current-layer="svg11" />
  <defs
     id="defs1">
    <rect
       x="-189.44016"
       y="15.409007"
       width="257.42105"
       height="105.14381"
       id="rect13" />
    <style
       id="style1">.cls-1{fill:#363873;}.cls-2{fill:#90e4dc;}</style>
    <rect
       x="-189.44016"
       y="15.409007"
       width="257.42105"
       height="105.14381"
       id="rect13-4" />
    <rect
       x="-189.44016"
       y="15.409007"
       width="257.42105"
       height="105.14381"
       id="rect13-8" />
  </defs>
  <g
     id="Layer_2"
     data-name="Layer 2"
     transform="translate(-0.04606452,-0.02914496)">
    <path
       class="cls-2"
       d="m 10.5,7.21 a 2.57,2.57 0 1 0 -0.42,2.49 5.6,5.6 0 1 1 -7,7.8 H 0.42 A 8.09,8.09 0 1 0 10.5,7.21 Z"
       id="path10" />
    <path
       class="cls-2"
       d="m 5.68,15.81 a 2.56,2.56 0 1 0 0.41,-2.49 5.6,5.6 0 1 1 7,-7.8 h 2.69 A 8.08,8.08 0 1 0 5.68,15.81 Z"
       id="path11" />
  </g>
  <text
     xml:space="preserve"
     style="font-weight:600;font-size:1333.33px;font-family:Poppins;-inkscape-font-specification:'Poppins, Semi-Bold';letter-spacing:-67.72px;fill:#000000"
     x="46.256489"
     y="-29.940748"
     id="text11"><tspan
       sodipodi:role="line"
       id="tspan11"
       x="46.256489"
       y="-29.940748"></tspan></text>
  <g
     id="g13"
     transform="translate(-0.04606452,-0.02914496)">
    <path
       class="cls-1"
       d="m 26,14 a 2.57,2.57 0 0 0 2.64,2 c 1.14,0 2.18,-0.42 2.18,-1.5 0,-0.56 -0.31,-1.08 -1.68,-1.56 L 27.56,12.4 c -3.22,-1.1 -3.7,-3.11 -3.7,-4.32 0,-2.61 2.06,-4.23 4.91,-4.23 A 5,5 0 0 1 33.65,7 L 31,8.29 A 2.31,2.31 0 0 0 28.76,6.65 c -1,0 -1.77,0.4 -1.77,1.35 0,0.38 0.1,1.06 1.56,1.56 l 1.54,0.54 c 3.26,1 3.84,3 3.86,4.3 0,3 -2.66,4.4 -5.22,4.4 -2.78,0 -5.31,-1.57 -5.6,-4.28 z"
       id="path1" />
    <text
       xml:space="preserve"
       id="text13"
       style="font-weight:600;font-size:26.6667px;font-family:Poppins;-inkscape-font-specification:'Poppins, Semi-Bold';letter-spacing:-1.35587px;white-space:pre;shape-inside:url(#rect13);display:inline;fill:#363873;fill-opacity:1"
       transform="matrix(0.72278455,0,0,0.72278455,170.78004,-9.400777)"><tspan
         x="-189.43945"
         y="38.741566"
         id="tspan1">wift</tspan></text>
    <text
       xml:space="preserve"
       id="text13-05"
       style="font-weight:600;font-size:26.6667px;font-family:Poppins;-inkscape-font-specification:'Poppins, Semi-Bold';letter-spacing:-1.24962px;white-space:pre;shape-inside:url(#rect13-8);display:inline;fill:#363873;fill-opacity:1"
       transform="matrix(0.78423815,0,0,0.78423815,214.15553,-11.787205)"><tspan
         x="-189.43945"
         y="38.741566"
         id="tspan2">R</tspan></text>
    <path
       d="m 88.069619,13.030459 c 0,0.385485 -0.02573,0.732422 -0.0771,1.04081 h -7.806081 c 0.06426,0.770971 0.334086,1.374899 0.809519,1.811782 0.475433,0.436884 1.060086,0.655326 1.753959,0.655326 1.002264,0 1.715407,-0.430459 2.139443,-1.291377 h 2.910422 c -0.308391,1.027962 -0.899469,1.87603 -1.773236,2.544205 -0.873767,0.655325 -1.946705,0.982988 -3.218806,0.982988 -1.027966,0 -1.95313,-0.224866 -2.775492,-0.674599 -0.809526,-0.462583 -1.445577,-1.111484 -1.908159,-1.946703 -0.449731,-0.835218 -0.674596,-1.798932 -0.674596,-2.891141 0,-1.105059 0.224865,-2.075198 0.674596,-2.910417 0.449738,-0.8352185 1.079363,-1.4776945 1.888882,-1.9274276 0.809519,-0.4497332 1.741108,-0.6745994 2.794769,-0.6745994 1.015115,0 1.921003,0.2184414 2.717677,0.6553249 0.809519,0.4368835 1.432718,1.0600857 1.869605,1.8696051 0.449731,0.79667 0.674597,1.715411 0.674597,2.756223 z M 85.27485,12.259487 c -0.01287,-0.693874 -0.263434,-1.246403 -0.751696,-1.657588 -0.488285,-0.424034 -1.085789,-0.6360513 -1.792513,-0.6360513 -0.668171,0 -1.233548,0.2055923 -1.696137,0.6167773 -0.449731,0.398335 -0.725994,0.957289 -0.828788,1.676862 z m 6.169797,-2.7947704 c 0.346937,-0.4882822 0.82237,-0.8930415 1.426292,-1.2142795 0.616774,-0.3340877 1.317073,-0.5011311 2.100897,-0.5011311 0.91232,0 1.73469,0.2248662 2.467109,0.6745994 0.74527,0.4497331 1.329924,1.0922091 1.75396,1.9274276 0.436887,0.822369 0.655329,1.779659 0.655329,2.871868 0,1.092209 -0.218442,2.062347 -0.655329,2.910416 -0.424036,0.835219 -1.00869,1.484119 -1.75396,1.946702 -0.732419,0.462583 -1.554789,0.693874 -2.467109,0.693874 -0.783824,0 -1.477697,-0.160618 -2.08162,-0.481856 -0.591079,-0.321238 -1.072937,-0.725999 -1.445569,-1.21428 v 6.611078 h -2.6984 V 7.9227743 h 2.6984 z m 5.647361,3.7584844 c 0,-0.642476 -0.134922,-1.195005 -0.404759,-1.657588 -0.256993,-0.475433 -0.60393,-0.835219 -1.04081,-1.07936 -0.424036,-0.24414 -0.886618,-0.366211 -1.387753,-0.366211 -0.488277,0 -0.950859,0.128495 -1.387747,0.385486 -0.424036,0.24414 -0.770972,0.603927 -1.040809,1.079359 -0.256986,0.475433 -0.385483,1.034387 -0.385483,1.676863 0,0.642476 0.128497,1.201429 0.385483,1.676862 0.269837,0.475432 0.616773,0.841643 1.040809,1.098634 0.436888,0.244141 0.89947,0.366211 1.387747,0.366211 0.501135,0 0.963717,-0.128495 1.387753,-0.385486 0.43688,-0.25699 0.783817,-0.623201 1.04081,-1.098634 0.269837,-0.475432 0.404759,-1.040811 0.404759,-1.696136 z m 8.483682,5.550992 c -1.02797,0 -1.95313,-0.224866 -2.7755,-0.674599 -0.82237,-0.462583 -1.47127,-1.111484 -1.94671,-1.946703 -0.46258,-0.835218 -0.69387,-1.798932 -0.69387,-2.891141 0,-1.09221 0.23772,-2.055924 0.71315,-2.891142 0.48828,-0.835219 1.15004,-1.477695 1.98525,-1.9274281 0.83522,-0.4625829 1.76681,-0.6938739 2.79477,-0.6938739 1.02796,0 1.95955,0.231291 2.79477,0.6938739 0.83522,0.4497331 1.49055,1.0922091 1.96598,1.9274281 0.48828,0.835218 0.73242,1.798932 0.73242,2.891142 0,1.092209 -0.25057,2.055923 -0.7517,2.891141 -0.48827,0.835219 -1.15645,1.48412 -2.00452,1.946703 -0.83522,0.449733 -1.77323,0.674599 -2.81404,0.674599 z m 0,-2.351462 c 0.48827,0 0.94443,-0.115645 1.36847,-0.346937 0.43688,-0.244141 0.78382,-0.603927 1.04081,-1.079359 0.25699,-0.475433 0.38549,-1.053661 0.38549,-1.734685 0,-1.015112 -0.26984,-1.792508 -0.80952,-2.332188 -0.52683,-0.552529 -1.17573,-0.828794 -1.94671,-0.828794 -0.77097,0 -1.41987,0.276265 -1.9467,0.828794 -0.51398,0.53968 -0.77097,1.317076 -0.77097,2.332188 0,1.015111 0.25056,1.798932 0.7517,2.351461 0.51398,0.53968 1.15645,0.80952 1.92743,0.80952 z m 8.80517,-6.8423689 c 0.34694,-0.5653787 0.79667,-1.008687 1.3492,-1.329925 0.56538,-0.321238 1.20786,-0.3256072 1.92743,-0.3256072 l -0.008,2.2083181 -0.76783,0.01563 c -0.8479,0.01726 -1.42805,0.652293 -1.86493,1.050628 -0.42403,0.398335 -0.63606,1.092209 -0.63606,2.081623 v 5.3197 h -2.69839 V 7.9227743 h 2.69839 z m 7.2501,0.5589539 v 5.165507 c 0,0.359787 0.0835,0.623202 0.25057,0.790246 0.17989,0.154193 0.47543,0.231291 0.88661,0.231291 h 1.25283 v 2.274365 h -1.69613 c -2.27437,0 -3.41155,-1.105059 -3.41155,-3.315177 v -5.146232 h -1.2721 V 7.9227743 h 1.2721 V 5.282198 h 2.71767 v 2.6405763 h 2.39001 v 2.2165417 z m 13.28298,2.891143 c 0,0.385485 -0.0257,0.732422 -0.0771,1.04081 h -7.80608 c 0.0643,0.770971 0.33408,1.374899 0.80952,1.811782 0.47543,0.436884 1.06008,0.655326 1.75396,0.655326 1.00226,0 1.7154,-0.430459 2.13944,-1.291377 h 2.91042 c -0.30839,1.027962 -0.89947,1.87603 -1.77324,2.544205 -0.87376,0.655325 -1.9467,0.982988 -3.2188,0.982988 -1.02796,0 -1.95312,-0.224866 -2.77549,-0.674599 -0.80953,-0.462583 -1.44558,-1.111484 -1.90816,-1.946703 -0.44973,-0.835218 -0.6746,-1.798932 -0.6746,-2.891141 0,-1.105059 0.22487,-2.075198 0.6746,-2.910417 0.44974,-0.8352185 1.07936,-1.4776945 1.88888,-1.9274276 0.80952,-0.4497332 1.74111,-0.6745994 2.79477,-0.6745994 1.01511,0 1.921,0.2184414 2.71768,0.6553249 0.80951,0.4368835 1.43271,1.0600857 1.8696,1.8696051 0.44973,0.79667 0.6746,1.715411 0.6746,2.756223 z m -2.79477,-0.770972 c -0.0129,-0.693874 -0.26343,-1.246403 -0.7517,-1.657588 -0.48828,-0.424034 -1.08579,-0.6360513 -1.79251,-0.6360513 -0.66817,0 -1.23355,0.2055923 -1.69614,0.6167773 -0.44973,0.398335 -0.72599,0.957289 -0.82879,1.676862 z m 6.07289,-2.6791249 c 0.34694,-0.5653787 0.79667,-1.008687 1.3492,-1.329925 0.56539,-0.321238 1.20786,-0.4818573 1.92744,-0.4818573 v 2.8333192 h -0.71315 c -0.84807,0 -1.49055,0.199167 -1.92743,0.597503 -0.42404,0.398335 -0.63606,1.092209 -0.63606,2.081622 v 5.319701 h -2.69839 V 7.9227743 h 2.69839 z"
       id="text13-0"
       style="font-weight:600;font-size:26.6667px;font-family:Poppins;-inkscape-font-specification:'Poppins, Semi-Bold';letter-spacing:-1.35587px;white-space:pre;fill:#363873;stroke-width:0.722785"
       aria-label="eporter"
       sodipodi:nodetypes="sccsscccsccssssccsccscccccsccsccscccccccsccsccsccsccssccsccsccsccsscsscscscsccccscsccccccscsccssccccccccccsccsscccsccssssccsccscccccccscsccccc" />
  </g>
</svg>
